<?xml version="1.0" encoding="utf-8"?>
<!-- Generator: Adobe Illustrator 15.1.0, SVG Export Plug-In . SVG Version: 6.00 Build 0)  -->
<!DOCTYPE svg PUBLIC "-//W3C//DTD SVG 1.1//EN" "http://www.w3.org/Graphics/SVG/1.1/DTD/svg11.dtd">
<svg version="1.1" id="Layer_1" xmlns="http://www.w3.org/2000/svg" xmlns:xlink="http://www.w3.org/1999/xlink" x="0px" y="0px"
	 width="612px" height="792px" viewBox="0 0 612 792" enable-background="new 0 0 612 792" xml:space="preserve">
<path fill-rule="evenodd" clip-rule="evenodd" stroke="#000000" stroke-width="2.9999" stroke-linecap="round" stroke-linejoin="round" stroke-miterlimit="22.9256" d="
	M290.483,726.516c-0.928,1.37-2.219,3.575-3.243,5.921s-1.779,4.834-2.298,6.817c-0.52,1.984-0.804,3.464-0.772,4.882
	c0.032,1.417,0.378,2.771,0.221,3.007c-0.158,0.236-0.819-0.646-1.716-1.212c-0.897-0.567-2.031-0.819-3.165-0.661
	c-1.134,0.157-2.267,0.724-3.085,1.731c-0.819,1.008-1.323,2.456-2.047,4.251s-1.669,3.937-2.125,4.803
	c-0.457,0.865-0.426,0.456-0.882-1.118c-0.457-1.574-1.402-4.314-2.362-6.976c-0.96-2.66-1.937-5.243-2.44-7.101
	c-0.504-1.858-0.536-2.991-0.299-4.503c0.236-1.512,0.74-3.4,0.756-4.991c0.015-1.591-0.457-2.882-0.882-4.535
	s-0.803-3.668-1.275-6.282c-0.472-2.613-1.039-5.825-1.952-9.132c-0.913-3.307-2.172-6.707-2.802-9.384s-0.63-4.63-0.913-7.149
	c-0.284-2.519-0.85-5.604-2.74-11.398c-1.89-5.795-5.102-14.297-7.369-20.532c-2.268-6.235-3.59-10.202-5.07-14.013
	c-1.48-3.811-3.118-7.464-4.157-10.644c-1.04-3.181-1.48-5.89-2.52-10.486c-1.039-4.598-2.676-11.085-3.999-16.218
	s-2.33-8.912-3.59-12.124s-2.771-5.857-4.094-7.998c-1.323-2.142-2.457-3.779-4.062-5.605c-1.606-1.826-3.685-3.842-4.913-5.039
	c-1.229-1.196-1.606-1.574-1.89-2.181c-0.284-0.606-0.472-1.44-0.259-2.629c0.212-1.189,0.826-2.731,1.393-4.196
	s1.086-2.85,1.11-4.527c0.023-1.676-0.449-3.645-1.221-5.086c-0.771-1.439-1.842-2.353-2.897-3.125
	c-1.055-0.771-2.094-1.4-2.472-2.976c-0.378-1.574-0.094-4.094,0.268-6.597c0.362-2.504,0.803-4.991,0.63-7.621
	c-0.174-2.629-0.961-5.4-1.921-7.903c-0.96-2.504-2.094-4.739-3.826-8.408s-4.063-8.77-6.062-13.478
	c-2-4.707-3.668-9.021-4.566-12.202s-1.023-5.229-1.244-7.228c-0.221-2-0.535-3.952-1.543-6.156
	c-1.008-2.204-2.708-4.661-3.558-6.52c-0.85-1.857-0.85-3.116-1.07-4.534c-0.221-1.417-0.662-2.991-1.354-4.976
	c-0.693-1.983-1.638-4.377-2.992-7.936c-1.354-3.558-3.118-8.281-4.535-13.194c-1.417-4.912-2.488-10.014-3.559-15.305
	c-1.07-5.29-2.141-10.77-3.148-14.863c-1.008-4.094-1.953-6.802-2.861-9.006c-0.909-2.204-1.782-3.905-1.75-5.07
	c0.031-1.165,0.967-1.795,2.222-2.803c1.255-1.008,2.83-2.393,5.885-5.385c3.055-2.992,7.589-7.589,11.336-11.336
	c3.747-3.748,6.708-6.645,9.259-9.069c2.55-2.425,4.692-4.377,6.675-7.148c1.984-2.771,3.811-6.361,5.952-8.943
	c2.141-2.582,4.597-4.157,6.739-6.581c2.141-2.425,3.968-5.7,6.424-9.447c2.457-3.748,5.542-7.967,7.936-12.061
	c2.393-4.094,4.094-8.062,6.33-12.501s5.007-9.352,7.369-13.98c2.361-4.629,4.314-8.975,6.235-13.257s3.81-8.502,5.259-11.368
	c1.449-2.866,2.457-4.377,3.212-6.519c0.756-2.141,1.26-4.913,2.394-7.778c1.133-2.865,2.897-5.826,3.842-8.754
	c0.944-2.928,1.07-5.826,1.952-10.486s2.519-11.084,4-16.469c1.48-5.385,2.803-9.73,3.968-13.887
	c1.165-4.157,2.172-8.125,3.181-11.903c1.007-3.779,2.015-7.369,2.424-10.234c0.41-2.866,0.221-5.007,0.472-6.959
	c0.252-1.952,0.945-3.715,1.606-6.077c0.661-2.362,1.291-5.322,2.141-8.125c0.85-2.802,1.921-5.448,2.425-8.376
	c0.503-2.929,0.44-6.141,0.346-8.691c-0.095-2.55-0.221-4.439,0.283-6.203c0.504-1.764,1.637-3.401,2.425-5.259
	c0.787-1.858,1.228-3.936,1.228-7.085c0-3.149-0.441-7.369,0.819-10.14c1.259-2.771,4.219-4.094,6.393-3.842
	c2.172,0.252,3.558,2.078,4.566,3.243c1.008,1.166,1.638,1.669,2.708,1.48c1.071-0.189,2.582-1.071,3.526-3.118
	c0.945-2.047,1.323-5.259,1.953-7.18c0.63-1.921,1.512-2.551,1.605-3.811c0.095-1.26-0.598-3.149-0.598-4.755
	c0-1.606,0.692-2.929,1.102-4.346c0.41-1.417,0.536-2.928,0.567-4.472c0.031-1.543-0.031-3.118,0.63-5.07
	c0.661-1.953,2.047-4.283,2.268-6.707c0.22-2.425-0.725-4.945-0.378-7.149c0.346-2.204,1.983-4.093,4.188-4.818
	c2.204-0.724,4.976-0.283,6.645,0.347c1.669,0.629,2.236,1.448,3.811,1.102c1.574-0.347,4.156-1.858,6.424-1.984
	s4.22,1.133,6.109,1.07s3.716-1.448,5.416-1.7s3.275,0.63,4.692,2.142c1.417,1.511,2.677,3.653,4.565,4.975
	c1.89,1.323,4.409,1.827,7.054,1.323c2.646-0.504,5.417-2.016,8.408-3.401c2.992-1.386,6.204-2.645,8.471-4.283
	c2.268-1.638,3.59-3.653,4.346-6.078s0.945-5.259,1.087-8.046c0.142-2.787,0.235-5.526,0.929-7.793
	c0.692-2.268,1.983-4.063,3.337-5.873c1.354-1.811,2.771-3.637,3.622-4.141s1.134,0.315,1.764,1.464s1.606,2.629,2.377,3.291
	c0.771,0.661,1.339,0.504,1.969-0.251c0.63-0.756,1.322-2.11,2.582-2.756s3.086-0.583,4.645-1.039c1.56-0.457,2.85-1.433,4.33-2.787
	s3.149-3.086,5.055-4.44s4.046-2.332,6.14-2.379c2.095-0.047,4.142,0.835,5.543,1.67c1.401,0.834,2.157,1.623,2.314,2.662
	c0.158,1.039-0.283,2.33-0.63,3.4c-0.346,1.071-0.598,1.921-0.456,2.85c0.142,0.929,0.677,1.937,1.621,2.913
	c0.945,0.976,2.299,1.921,2.85,3.118c0.552,1.196,0.3,2.645-0.109,3.92c-0.409,1.276-0.977,2.377-0.93,3.37
	c0.048,0.992,0.709,1.874,1.465,2.929c0.756,1.055,1.606,2.283,2.109,3.527c0.505,1.244,0.662,2.503,0.426,3.811
	s-0.866,2.661-1.622,3.668s-1.638,1.669-2.016,2.472c-0.378,0.803-0.252,1.748,0.725,2.44c0.976,0.693,2.803,1.134,3.873,2.031
	c1.071,0.897,1.386,2.251,1.543,4.157c0.158,1.905,0.158,4.361,0.362,7.007c0.205,2.645,0.614,5.479,1.435,8.077
	c0.819,2.598,2.051,4.959,2.666,6.849s0.615,3.306,0.047,4.66s-1.704,2.645-2.619,3.7c-0.914,1.055-1.606,1.874-2.253,2.992
	c-0.645,1.118-1.243,2.535-1.873,4.676c-0.63,2.141-1.291,5.007-1.874,7.4c-0.582,2.394-1.086,4.314-2.031,6.188
	c-0.944,1.873-2.33,3.7-4.109,5.148c-1.779,1.449-3.952,2.52-6.282,3.732c-2.33,1.212-4.818,2.566-6.645,3.763
	s-2.991,2.236-4.582,3.401c-1.59,1.165-3.605,2.456-5.621,3.023c-2.015,0.566-4.03,0.409-5.511,1.228
	c-1.479,0.818-2.425,2.613-3.543,3.7c-1.117,1.087-2.408,1.464-3.432,2.016c-1.023,0.551-1.779,1.275-2.378,2.818
	c-0.598,1.543-1.039,3.905-0.818,8.046s1.102,10.062,1.007,13.966c-0.094,3.904-1.164,5.794-1.763,8.124
	c-0.599,2.331-0.725,5.102-0.818,8.502c-0.095,3.401-0.158,7.432-0.379,10.234s-0.599,4.377-0.535,7.18
	c0.063,2.803,0.566,6.833,0.976,11.022c0.409,4.188,0.725,8.534,0.473,12.344c-0.252,3.811-1.07,7.086-1.858,10.203
	c-0.787,3.118-1.543,6.078-2.109,8.219c-0.566,2.141-0.944,3.463-1.26,5.29c-0.314,1.826-0.566,4.157-1.165,5.826
	c-0.598,1.669-1.543,2.677-1.669,4.503c-0.126,1.827,0.567,4.472,1.512,6.55c0.944,2.078,2.141,3.59,2.456,5.291
	c0.314,1.7-0.252,3.589-0.945,6.172c-0.692,2.582-1.511,5.857-1.605,8.188c-0.095,2.331,0.535,3.716,0.787,5.133
	s0.125,2.865-0.096,4.818c-0.221,1.952-0.535,4.408-0.566,6.739c-0.031,2.33,0.22,4.534,1.196,6.109s2.677,2.52,3.889,3.244
	c1.213,0.724,1.938,1.228,2.347,2.251s0.504,2.566,0.314,4.063c-0.188,1.496-0.661,2.944-1.181,4.598s-1.086,3.511-1.322,5.07
	c-0.236,1.559-0.142,2.818-0.536,5.337c-0.394,2.52-1.275,6.298-2.409,9.762s-2.52,6.613-2.709,9.762
	c-0.188,3.149,0.819,6.298,1.764,9.321c0.945,3.023,1.827,5.92,1.386,10.455c-0.44,4.535-2.204,10.707-4.22,15.178
	c-2.016,4.472-4.282,7.243-6.235,8.691c-1.952,1.449-3.59,1.575-4.03,0.063s0.315-4.661,0.504-6.928
	c0.188-2.268-0.188-3.653-1.322-3.149s-3.023,2.897-5.354,5.354s-5.102,4.976-6.487,7.495c-1.386,2.519-1.386,5.038-0.378,6.298
	c1.008,1.259,3.023,1.259,4.22,2.078s1.574,2.456,2.896,3.842c1.323,1.386,3.591,2.52,5.983,3.653
	c2.394,1.134,4.913,2.267,6.109,3.652c1.197,1.386,1.07,3.023,0.378,4.661s-1.952,3.274-2.016,4.723
	c-0.063,1.449,1.071,2.709,0.441,4.031s-3.023,2.708-5.731,4.156c-2.708,1.449-5.731,2.96-7.495,6.361
	c-1.763,3.401-2.267,8.691-2.896,13.226c-0.63,4.535-1.386,8.313-3.212,10.141c-1.826,1.826-4.724,1.7-6.613,3.022
	c-1.89,1.323-2.771,4.094-3.149,7.873c-0.378,3.778-0.251,8.565-1.007,11.021s-2.394,2.582-3.401,3.778
	c-1.008,1.197-1.385,3.464-1.952,6.172c-0.566,2.709-1.322,5.857-3.148,9.825c-1.827,3.969-4.724,8.755-6.991,12.345
	s-3.905,5.983-4.787,8.691c-0.881,2.708-1.007,5.73-2.173,10.14c-1.165,4.408-3.369,10.203-4.692,14.989
	c-1.322,4.787-1.763,8.565-1.605,11.651c0.158,3.086,0.913,5.479,1.229,7.872c0.314,2.394,0.188,4.787-1.134,7.621
	s-3.842,6.109-4.882,10.061c-1.039,3.951-0.6,8.58-0.411,12.279c0.188,3.7,0.126,6.471,0.629,9.462
	c0.504,2.992,1.575,6.204,1.26,9.384c-0.314,3.182-2.015,6.331-3.59,8.692c-1.574,2.361-3.022,3.937-3.464,5.542
	c-0.44,1.606,0.126,3.244-0.188,4.346c-0.315,1.103-1.512,1.669-2.646,2.835c-1.134,1.164-2.205,2.928-3.023,5.321
	c-0.819,2.393-1.386,5.416-1.669,8.092c-0.284,2.677-0.284,5.008-0.693,7.086c-0.41,2.078-1.229,3.904-1.858,5.668
	c-0.63,1.764-1.071,3.464-1.291,5.479c-0.221,2.016-0.221,4.346-0.63,6.581c-0.41,2.236-1.229,4.378-2.394,6.425
	s-2.676,3.999-3.243,5.888c-0.567,1.89-0.189,3.716,0.314,5.417c0.504,1.7,1.134,3.275,1.166,4.33
	C291.976,724.61,291.411,725.146,290.483,726.516z"/>
</svg>
